<?xml version="1.0" standalone="no"?>
<!DOCTYPE svg PUBLIC "-//W3C//DTD SVG 20010904//EN"
 "http://www.w3.org/TR/2001/REC-SVG-20010904/DTD/svg10.dtd">
<svg version="1.0" xmlns="http://www.w3.org/2000/svg"
 width="1280.000000pt" height="720.000000pt" viewBox="0 0 1280.000000 720.000000"
 preserveAspectRatio="xMidYMid meet">
<metadata>
Created by potrace 1.15, written by Peter Selinger 2001-2017
</metadata>
<g transform="translate(0.000000,720.000000) scale(0.100000,-0.100000)"
fill="#000000" stroke="none">
<path d="M3055 6673 c-13 -172 -13 -172 -48 -178 -18 -3 -63 -6 -101 -8 l-69
-2 -32 110 -33 110 -43 -1 c-24 0 -57 -4 -73 -8 l-28 -7 7 -123 7 -122 -97
-26 -97 -25 -54 114 c-29 63 -57 113 -61 110 -5 -2 -34 -12 -65 -22 -32 -10
-58 -23 -58 -29 0 -6 10 -60 21 -119 13 -63 18 -111 13 -116 -23 -20 -176 -74
-182 -65 -4 6 -33 52 -65 102 -33 51 -63 92 -68 92 -19 0 -119 -55 -119 -65 0
-6 18 -59 39 -118 l39 -108 -22 -13 c-122 -74 -149 -86 -162 -75 -8 7 -44 47
-81 90 -36 44 -70 79 -75 79 -6 0 -34 -17 -63 -37 l-53 -38 54 -106 c30 -58
54 -109 54 -112 0 -4 -34 -34 -76 -67 l-76 -60 -60 53 c-33 28 -75 65 -94 80
l-34 29 -50 -42 c-27 -23 -50 -46 -50 -52 0 -8 75 -119 131 -194 5 -6 -20 -39
-64 -82 l-72 -71 -98 65 c-54 35 -102 64 -106 64 -5 0 -28 -23 -52 -51 l-42
-50 39 -42 c21 -23 60 -64 86 -92 l47 -50 -56 -75 c-30 -41 -61 -76 -68 -78
-7 -2 -59 20 -115 48 -56 28 -103 50 -105 48 -24 -27 -75 -122 -68 -127 4 -4
44 -36 88 -71 44 -35 84 -67 89 -71 10 -9 -73 -169 -91 -176 -7 -3 -56 9 -110
27 -54 17 -103 33 -110 35 -12 4 -63 -94 -63 -120 0 -7 47 -40 104 -74 l103
-60 -34 -93 c-19 -51 -36 -94 -37 -95 0 -1 -55 7 -120 18 -65 11 -121 17 -124
15 -2 -3 -12 -34 -22 -69 l-18 -64 107 -43 c58 -24 110 -46 114 -50 7 -7 -10
-113 -30 -184 -5 -18 -13 -19 -129 -13 l-123 7 -6 -48 c-3 -26 -8 -58 -11 -72
-4 -25 -1 -26 113 -56 l118 -31 -3 -99 c-2 -54 -5 -100 -6 -101 -1 -1 -42 -7
-91 -13 -50 -6 -105 -13 -122 -16 l-33 -5 0 -69 0 -69 33 -6 c17 -3 72 -10
122 -16 49 -5 90 -11 91 -12 1 -1 4 -47 6 -101 l3 -100 -118 -30 c-114 -30
-117 -32 -113 -56 3 -14 8 -46 11 -73 l6 -47 123 6 c116 7 124 6 129 -12 20
-71 37 -177 30 -184 -4 -4 -56 -26 -114 -50 l-107 -43 18 -64 c10 -35 20 -66
23 -69 5 -5 187 20 228 32 12 3 24 -19 51 -91 l35 -96 -96 -56 c-53 -31 -101
-60 -108 -65 -9 -7 -4 -25 17 -70 16 -33 30 -62 32 -64 3 -2 43 9 90 25 154
52 139 55 192 -42 25 -46 46 -86 46 -89 0 -4 -156 -131 -183 -150 -9 -5 7 -34
64 -120 3 -5 53 14 110 42 57 28 109 49 115 48 7 -2 37 -37 67 -78 l55 -75
-85 -92 -85 -93 42 -50 c23 -27 46 -50 51 -50 5 0 53 29 107 64 l99 64 71 -71
71 -72 -70 -98 c-39 -54 -68 -104 -66 -111 3 -7 26 -30 51 -51 42 -34 48 -36
64 -23 9 8 51 44 93 81 l76 67 77 -61 c42 -33 76 -63 76 -67 0 -3 -24 -53 -54
-111 l-54 -106 53 -38 c29 -20 57 -37 63 -37 5 0 39 35 75 79 37 43 73 83 81
90 13 11 40 -1 162 -75 l22 -13 -39 -108 c-21 -59 -39 -112 -39 -118 0 -10
100 -65 119 -65 5 0 35 41 68 92 32 50 61 96 65 101 6 9 161 -45 182 -64 5 -5
0 -53 -13 -116 -11 -59 -21 -113 -21 -120 0 -6 24 -19 53 -28 28 -9 58 -18 65
-21 9 -2 32 36 67 110 l53 113 97 -25 97 -26 -7 -122 -7 -123 28 -7 c16 -4 49
-8 73 -8 l44 -1 32 110 33 110 68 -2 c38 -2 83 -5 101 -8 35 -6 35 -6 48 -177
l7 -78 72 0 72 0 17 117 c9 64 21 121 25 125 5 5 51 7 103 6 l94 -3 25 -112
c14 -61 28 -115 32 -118 3 -4 36 -4 72 0 l65 7 3 126 3 126 98 16 99 17 10
-26 c5 -14 23 -62 40 -106 16 -44 33 -84 38 -88 8 -9 107 9 129 22 6 4 4 45
-6 124 -9 65 -14 119 -12 121 2 3 46 18 97 34 l92 30 56 -104 c30 -57 58 -106
62 -108 6 -4 120 38 129 48 2 2 -10 52 -27 112 -16 60 -30 114 -30 119 0 15
171 98 181 88 4 -4 39 -49 77 -100 l69 -92 59 36 c32 19 60 36 61 37 2 1 -20
53 -47 116 -28 62 -49 114 -48 115 34 25 159 105 165 105 5 0 46 -38 92 -84
l84 -85 44 32 c72 51 72 46 3 162 l-63 106 63 57 c35 31 69 61 76 65 9 5 46
-16 107 -63 52 -38 99 -70 104 -70 6 0 30 22 53 50 l42 50 -64 77 c-35 43 -70
86 -77 95 -14 19 -14 19 86 137 l30 35 106 -62 107 -61 28 35 c65 79 66 75
-32 166 -59 55 -85 86 -81 96 3 8 26 48 51 88 l45 72 109 -44 c61 -24 113 -44
117 -44 8 0 76 121 71 125 -2 1 -47 33 -100 69 -54 37 -98 71 -98 76 0 4 18
46 39 93 l39 86 64 -15 c35 -8 88 -21 118 -29 30 -8 56 -12 58 -10 2 2 14 32
27 68 l23 64 -109 53 c-60 30 -109 59 -109 65 0 13 49 177 54 182 2 3 57 -1
121 -7 64 -6 119 -9 122 -6 6 6 33 130 29 134 -2 1 -54 20 -117 41 -76 26
-113 43 -112 52 1 8 7 53 13 100 l12 86 121 7 c67 4 123 8 124 10 2 2 4 34 6
72 l2 68 -70 13 c-38 7 -92 17 -120 23 l-50 10 0 100 0 100 50 9 c28 6 82 16
120 24 l70 13 -2 69 c-2 37 -4 69 -5 71 -2 1 -58 6 -126 10 -78 4 -122 11
-122 18 0 6 -6 50 -14 98 l-13 88 51 19 c28 10 82 28 119 41 45 14 67 26 63
35 -2 7 -7 33 -11 57 -11 73 -7 71 -139 58 -64 -7 -119 -10 -122 -8 -5 6 -53
169 -54 183 0 6 49 35 109 64 l109 54 -18 53 c-31 89 -20 85 -154 53 -65 -16
-120 -28 -120 -27 -9 16 -76 175 -76 180 0 3 44 37 98 74 53 36 98 68 99 69 3
1 -55 113 -63 124 -2 2 -55 -17 -118 -41 l-115 -45 -50 79 c-28 44 -51 83 -51
88 0 5 38 44 85 86 47 43 85 82 85 87 0 15 -71 107 -82 107 -5 0 -55 -25 -109
-56 -54 -30 -103 -53 -108 -50 -4 3 -34 37 -66 76 -40 49 -55 74 -48 83 5 6
40 49 77 94 l67 83 -37 44 c-21 25 -44 48 -52 51 -9 3 -53 -23 -108 -66 -52
-39 -98 -69 -102 -67 -5 1 -40 31 -77 66 l-68 62 61 102 c34 55 62 105 62 109
0 4 -24 26 -52 48 l-53 40 -85 -84 c-47 -47 -89 -85 -93 -85 -6 0 -133 81
-165 105 -1 1 20 53 48 115 27 63 49 115 47 116 -11 10 -110 64 -117 64 -5 0
-42 -43 -81 -95 -39 -52 -73 -95 -75 -95 -15 0 -174 87 -174 95 0 5 14 59 30
119 17 60 29 110 27 112 -9 10 -123 52 -129 48 -4 -2 -32 -52 -63 -110 -33
-62 -61 -103 -68 -100 -7 3 -49 17 -94 31 -95 30 -90 17 -68 170 10 68 11 101
4 106 -22 13 -121 31 -129 22 -5 -4 -25 -53 -45 -108 -21 -55 -40 -103 -44
-106 -3 -4 -49 1 -101 10 l-95 17 -3 126 -3 125 -66 7 c-36 4 -68 4 -72 1 -3
-4 -17 -57 -31 -118 l-25 -112 -94 -3 c-52 -1 -98 1 -103 6 -4 4 -16 61 -25
125 l-17 117 -72 0 -72 0 -7 -77z m284 -2628 c174 -41 303 -180 334 -359 39
-230 -128 -458 -367 -498 -230 -38 -458 131 -496 370 -35 218 119 440 340 488
75 17 114 16 189 -1z"/>
<path d="M9425 6738 c-3 -7 -8 -61 -13 -121 -5 -59 -12 -110 -15 -113 -8 -8
-187 -27 -193 -21 -3 3 -20 54 -38 114 l-33 108 -48 -2 c-26 -1 -58 -4 -72 -8
l-24 -6 7 -124 7 -124 -29 -6 c-16 -4 -60 -15 -97 -25 l-68 -17 -44 93 c-24
52 -47 103 -50 115 -4 11 -12 18 -18 16 -7 -2 -38 -13 -69 -23 -32 -10 -58
-22 -58 -28 1 -6 11 -61 24 -123 l23 -112 -94 -37 c-51 -20 -95 -35 -97 -33
-1 2 -31 48 -65 102 -35 53 -67 97 -72 97 -15 0 -119 -54 -119 -62 0 -4 18
-57 39 -118 l40 -110 -22 -14 c-12 -7 -51 -30 -86 -51 l-64 -38 -31 34 c-17
19 -54 61 -82 94 l-52 59 -56 -37 c-31 -20 -56 -42 -56 -48 0 -6 24 -57 54
-113 l55 -101 -80 -63 -81 -63 -76 68 c-120 106 -104 101 -162 52 -27 -23 -50
-46 -50 -50 0 -5 32 -53 70 -106 l70 -97 -71 -72 -72 -72 -96 64 c-53 35 -101
64 -108 64 -6 0 -30 -23 -52 -51 l-41 -51 83 -90 c45 -49 81 -93 79 -96 -10
-25 -107 -152 -116 -152 -6 0 -58 23 -115 50 -57 28 -105 49 -106 48 -25 -29
-75 -122 -68 -127 29 -19 183 -145 183 -149 0 -18 -87 -172 -97 -172 -11 0
-179 51 -219 67 -10 4 -64 -101 -64 -124 0 -5 47 -38 105 -71 l104 -62 -25
-67 c-46 -125 -45 -123 -68 -118 -35 8 -200 35 -212 35 -15 0 -50 -128 -38
-139 5 -4 52 -25 104 -46 52 -21 99 -42 103 -45 5 -4 0 -50 -10 -101 l-19 -94
-124 0 -123 0 -8 -28 c-4 -15 -9 -47 -11 -70 l-3 -42 115 -31 115 -31 -3 -99
c-1 -54 -4 -99 -5 -100 -1 -2 -43 -8 -92 -14 -50 -6 -105 -13 -122 -16 l-33
-5 0 -69 0 -69 33 -6 c17 -3 72 -10 122 -16 49 -5 91 -11 92 -13 1 -1 4 -47 5
-101 l3 -98 -115 -32 c-83 -22 -115 -35 -113 -45 1 -8 4 -41 8 -72 l6 -57 126
2 126 2 19 -94 c11 -51 16 -97 11 -101 -4 -4 -54 -26 -110 -50 -57 -23 -103
-47 -103 -53 0 -28 34 -127 44 -127 12 0 178 27 213 35 16 4 23 -1 31 -23 5
-15 21 -57 35 -94 l26 -68 -105 -62 c-57 -35 -104 -67 -104 -72 0 -7 51 -126
54 -126 0 0 50 16 110 35 60 19 114 35 120 35 9 0 96 -155 96 -172 0 -4 -154
-130 -183 -149 -7 -5 43 -97 68 -127 1 -1 50 20 108 48 58 27 110 50 115 50 9
0 118 -148 116 -157 -1 -3 -38 -45 -83 -94 l-82 -89 46 -55 47 -54 102 69 103
68 72 -72 71 -72 -70 -97 c-38 -53 -70 -101 -70 -106 0 -5 23 -28 50 -51 58
-48 42 -53 162 53 l77 68 56 -46 c31 -25 67 -52 81 -61 l24 -16 -57 -110 -58
-109 30 -25 c17 -14 43 -32 60 -41 l29 -16 51 59 c27 32 64 74 81 93 l31 34
64 -38 c35 -21 74 -44 86 -51 l22 -14 -40 -110 c-21 -61 -39 -114 -39 -119 0
-4 27 -20 60 -36 71 -34 62 -39 140 85 29 47 54 87 56 89 2 2 46 -13 97 -33
l94 -37 -23 -112 c-13 -62 -23 -117 -24 -123 0 -6 26 -19 58 -29 31 -10 62
-20 69 -22 6 -3 14 5 18 16 3 12 26 63 50 114 l44 94 97 -25 97 -26 -7 -123
-7 -122 28 -8 c15 -4 48 -7 72 -7 38 -1 45 2 52 24 4 14 20 65 34 113 l27 89
71 -7 c116 -10 125 -13 131 -43 3 -15 8 -71 11 -124 l7 -98 72 0 72 0 20 123
19 122 101 3 101 3 23 -110 c12 -60 26 -115 30 -121 5 -8 27 -10 74 -5 l66 7
0 124 c0 141 -16 123 123 148 42 7 79 11 81 7 3 -4 21 -52 42 -106 20 -55 40
-104 45 -109 8 -9 102 7 126 22 10 7 10 32 -3 126 -8 65 -14 120 -12 121 2 2
45 17 96 33 l92 30 50 -91 c73 -137 64 -130 134 -101 33 13 61 26 64 28 2 3
-11 57 -28 121 -18 64 -31 117 -29 119 7 6 168 86 174 86 3 0 37 -43 76 -95
38 -52 74 -95 80 -95 9 0 119 59 119 65 0 1 -20 48 -45 105 -25 57 -45 108
-45 114 0 12 142 116 157 116 4 0 46 -39 94 -86 l86 -85 51 41 c29 22 52 45
52 50 0 5 -27 54 -61 110 l-61 100 52 47 c29 26 63 56 77 66 l24 19 93 -71
c51 -39 97 -71 102 -71 6 0 24 15 40 33 63 67 64 57 -21 161 l-76 95 62 75
c34 42 65 76 68 76 3 0 53 -27 110 -59 l105 -60 43 57 43 57 -92 85 -91 86 52
86 53 85 111 -43 c62 -24 115 -44 118 -44 12 0 71 122 62 129 -181 124 -193
134 -187 153 3 11 21 53 40 94 27 59 38 74 52 70 38 -11 178 -45 200 -48 21
-3 27 5 48 61 13 35 23 65 22 66 -2 2 -50 26 -108 55 -58 29 -107 54 -109 56
-2 2 9 47 25 100 l28 96 66 -6 c36 -3 91 -9 122 -12 l57 -6 9 38 c6 22 13 53
17 70 l6 31 -118 42 -119 41 15 99 14 98 121 7 c66 4 122 9 125 11 2 3 5 35 5
72 l1 67 -115 23 c-63 12 -116 22 -117 22 -2 1 -3 46 -3 101 0 55 1 100 3 101
1 0 54 10 117 22 l115 23 -1 67 c0 37 -3 69 -5 71 -2 3 -59 8 -125 12 l-121 7
-14 98 -15 99 106 35 c58 19 111 39 118 44 11 6 11 19 -1 70 -8 34 -17 64 -19
67 -3 2 -58 0 -122 -7 -65 -6 -119 -9 -122 -7 -7 7 -57 188 -53 192 2 2 51 27
109 56 58 29 106 53 108 55 1 1 -6 24 -16 51 -10 27 -21 56 -25 66 -5 15 -15
14 -109 -8 -57 -14 -111 -27 -120 -30 -14 -4 -25 10 -52 70 -55 120 -58 105
46 176 51 35 97 66 102 71 13 12 -56 131 -74 126 -8 -3 -61 -23 -117 -45
l-101 -40 -53 86 -52 86 91 85 92 86 -43 57 -43 57 -105 -60 c-57 -32 -107
-59 -110 -59 -4 0 -34 34 -68 75 l-63 75 77 95 c85 105 84 94 21 163 -16 17
-34 32 -39 32 -5 0 -51 -32 -103 -71 -106 -81 -90 -81 -188 8 l-57 53 60 100
c34 56 61 105 61 110 0 4 -23 27 -52 50 l-52 41 -86 -86 c-47 -47 -89 -85 -92
-85 -16 0 -158 103 -158 115 0 7 20 59 45 115 25 56 45 104 43 105 -14 12
-107 65 -115 65 -6 0 -43 -43 -82 -95 -39 -52 -74 -95 -76 -95 -6 0 -167 80
-174 86 -2 2 11 54 28 116 36 130 35 124 19 131 -7 3 -36 14 -65 26 l-52 20
-32 -57 c-17 -31 -45 -80 -61 -108 l-28 -52 -93 30 c-50 16 -93 31 -95 33 -2
1 4 56 12 121 11 83 13 120 5 125 -22 13 -121 31 -129 22 -4 -4 -24 -53 -44
-108 -21 -54 -39 -102 -41 -105 -2 -4 -48 1 -102 10 l-98 16 -3 126 -3 126
-66 7 c-46 5 -68 3 -73 -5 -4 -6 -18 -61 -30 -121 l-23 -110 -101 3 -101 3
-19 123 -20 122 -68 0 c-46 0 -70 -4 -73 -12z m256 -2688 c190 -35 342 -203
356 -392 10 -134 -33 -253 -124 -344 -216 -217 -574 -153 -707 126 -29 61 -31
72 -31 180 0 108 2 119 31 180 45 94 111 162 197 205 105 51 179 63 278 45z"/>
</g>
</svg>
