<?xml version="1.0" standalone="no"?>
<!DOCTYPE svg PUBLIC "-//W3C//DTD SVG 20010904//EN"
 "http://www.w3.org/TR/2001/REC-SVG-20010904/DTD/svg10.dtd">
<svg version="1.0" xmlns="http://www.w3.org/2000/svg"
 width="923.000000pt" height="1280.000000pt" viewBox="0 0 923.000000 1280.000000"
 preserveAspectRatio="xMidYMid meet">
<metadata>
Created by potrace 1.15, written by Peter Selinger 2001-2017
</metadata>
<g transform="translate(0.000000,1280.000000) scale(0.100000,-0.100000)"
fill="#000000" stroke="none">
<path d="M4325 12789 c-419 -38 -906 -159 -1279 -318 -483 -204 -1075 -678
-1322 -1056 -180 -277 -315 -700 -379 -1187 -55 -431 -28 -954 76 -1423 80
-360 236 -703 517 -1130 57 -88 135 -200 172 -250 68 -91 304 -330 459 -466
l83 -74 -5 -265 c-13 -636 -161 -1357 -389 -1890 -83 -195 -529 -1045 -924
-1762 -612 -1111 -879 -1644 -1091 -2178 -122 -309 -243 -679 -243 -747 l0
-43 4040 0 c2222 0 4040 2 4040 4 0 2 -68 89 -151 193 -173 215 -270 359 -454
675 -244 418 -275 461 -548 733 -255 255 -284 289 -396 458 -98 150 -157 261
-196 370 -60 169 -57 225 26 491 83 267 91 352 64 661 -39 431 -38 581 5 719
18 56 33 81 78 129 117 122 333 241 565 311 142 43 208 53 442 65 272 15 300
18 500 57 278 53 346 78 416 148 74 75 125 224 136 401 7 122 -2 171 -69 373
l-51 153 16 52 c25 79 96 189 135 209 85 42 83 119 -5 256 -19 30 -32 57 -29
60 3 3 27 12 54 21 67 23 107 57 132 116 28 62 23 119 -20 259 -58 191 -56
203 55 235 87 25 266 115 341 171 64 48 104 122 104 191 0 69 -44 197 -91 268
-22 33 -84 101 -138 151 -184 169 -476 613 -550 836 -16 49 -24 116 -36 330
-49 870 -102 1245 -237 1654 -171 522 -502 986 -902 1265 -379 264 -1020 525
-1606 654 -202 45 -409 78 -695 111 -126 15 -530 21 -650 9z"/>
</g>
</svg>
